:FULLY-SPECIFIED
:FORCE-ALL-JOINTS-BE-3DOF
:DEGREES
32
root 0.432748 17.247 -19.5734 4.67492 -8.27971 -4.39819
lfemur -23.1173 13.2683 -11.173
ltibia 104.63 0 0
lfoot 11.2157 -3.86244 0
ltoes -8.88724 0 0
rfemur -18.9926 3.19102 30.499
rtibia 49.9364 0 0
rfoot -13.5143 -6.16956 0
rtoes -7.82276 0 0
lowerback 18.6476 -0.873443 2.95774
upperback 2.10386 -0.446282 1.71581
thorax -8.16146 -0.275939 0.286742
lowerneck -1.2267 2.63562 0.699912
upperneck -16.5336 3.14233 -3.06165
head -4.72699 1.66528 -1.15572
lclavicle -1.48957e-14 4.67896e-15 0
lhumerus -42.3172 -12.5163 94.5866
lradius 105.677 0 0
lwrist 33.1623 0 0
lhand -39.3663 13.4349 0
lfingers 7.12502 0 0
lthumb -12.3568 43.0492 0
rclavicle -1.48957e-14 4.67896e-15 0
rhumerus -34.0782 12.3582 -88.4765
rradius 98.9863 0 0
rwrist -2.71174 0 0
rhand -45.45 38.5308 0
rfingers 7.12502 0 0
rthumb -18.216 9.37198 0
33
root 0.443747 17.2514 -19.0361 4.65372 -8.53921 -4.5593
lfemur -23.5666 13.6426 -10.7458
ltibia 106.245 0 0
lfoot 11.9894 -3.98134 0
ltoes -8.85018 0 0
rfemur -18.4446 3.3384 30.845
rtibia 48.4365 0 0
rfoot -14.1376 -6.19857 0
rtoes -8.16157 0 0
lowerback 18.626 -0.86252 3.16161
upperback 2.1202 -0.380904 1.81274
thorax -8.13512 -0.250497 0.258514
lowerneck -1.19778 2.70209 0.74789
upperneck -16.6075 3.21086 -3.24216
head -4.7444 1.70472 -1.22456
lclavicle -1.4971e-14 5.211e-15 0
lhumerus -43.2114 -12.2834 94.8996
lradius 105.435 0 0
lwrist 33.3156 0 0
lhand -39.4168 13.5604 0
lfingers 7.12502 0 0
lthumb -12.4056 43.1719 0
rclavicle -1.4971e-14 5.211e-15 0
rhumerus -33.5218 12.4494 -88.4659
rradius 99.4364 0 0
rwrist -2.75165 0 0
rhand -45.3426 38.4759 0
rfingers 7.12502 0 0
rthumb -18.1127 9.30659 0
34
root 0.454746 17.2558 -18.4989 4.62962 -8.77488 -4.70616
lfemur -23.9879 13.9846 -10.353
ltibia 107.728 0 0
lfoot 12.7037 -4.0919 0
ltoes -8.82111 0 0
rfemur -17.9169 3.46569 31.1616
rtibia 47.0557 0 0
rfoot -14.6992 -6.22657 0
rtoes -8.45544 0 0
lowerback 18.6048 -0.852044 3.3487
upperback 2.13659 -0.320167 1.90126
thorax -8.10872 -0.226876 0.231913
lowerneck -1.17499 2.76225 0.791162
upperneck -16.6714 3.27256 -3.40747
head -4.75831 1.74042 -1.28758
lclavicle -1.50265e-14 5.75091e-15 0
lhumerus -44.0485 -12.0636 95.1901
lradius 105.206 0 0
lwrist 33.4583 0 0
lhand -39.4622 13.6749 0
lfingers 7.12502 0 0
lthumb -12.4493 43.284 0
rclavicle -1.50265e-14 5.75091e-15 0
rhumerus -33.0035 12.531 -88.4529
rradius 99.8483 0 0
rwrist -2.78631 0 0
rhand -45.2395 38.4231 0
rfingers 7.12502 0 0
rthumb -18.0135 9.24383 0
35
root 0.465745 17.2602 -17.9616 4.60245 -8.98505 -4.83776
lfemur -24.379 14.2919 -9.99706
ltibia 109.07 0 0
lfoot 13.3545 -4.1935 0
ltoes -8.80055 0 0
rfemur -17.4111 3.57155 31.4468
rtibia 45.8027 0 0
rfoot -15.1948 -6.25348 0
rtoes -8.70135 0 0
lowerback 18.5841 -0.842053 3.51779
upperback 2.15301 -0.264415 1.98077
thorax -8.0823 -0.205213 0.207068
lowerneck -1.15873 2.81564 0.829396
upperneck -16.7245 3.32694 -3.55649
head -4.76848 1.77212 -1.34435
lclavicle -1.5061e-14 6.29854e-15 0
lhumerus -44.8242 -11.8582 95.4562
lradius 104.989 0 0
lwrist 33.5898 0 0
lhand -39.502 13.7777 0
lfingers 7.12502 0 0
lthumb -12.4877 43.3845 0
rclavicle -1.5061e-14 6.29854e-15 0
rhumerus -32.526 12.6024 -88.4372
rradius 100.219 0 0
rwrist -2.81537 0 0
rhand -45.141 38.3728 0
rfingers 7.12502 0 0
rthumb -17.9188 9.1839 0
36
root 0.476744 17.2645 -17.4244 4.57209 -9.16801 -4.95307
lfemur -24.7377 14.5623 -9.68048
ltibia 110.26 0 0
lfoot 13.9374 -4.28552 0
ltoes -8.789 0 0
rfemur -16.9291 3.65464 31.6985
rtibia 44.6863 0 0
rfoot -15.6199 -6.2792 0
rtoes -8.89628 0 0
lowerback 18.5639 -0.832586 3.66767
upperback 2.16946 -0.213995 2.05067
thorax -8.05588 -0.185641 0.184105
lowerneck -1.14938 2.86183 0.862262
upperneck -16.7663 3.37353 -3.68813
head -4.77471 1.79956 -1.39445
lclavicle -1.50733e-14 6.85377e-15 0
lhumerus -45.5341 -11.668 95.6964
lradius 104.787 0 0
lwrist 33.7092 0 0
lhand -39.5358 13.8679 0
lfingers 7.12502 0 0
lthumb -12.5203 43.4729 0
rclavicle -1.50733e-14 6.85377e-15 0
rhumerus -32.0924 12.6628 -88.4188
rradius 100.547 0 0
rwrist -2.83846 0 0
rhand -45.0475 38.325 0
rfingers 7.12502 0 0
rthumb -17.829 9.12705 0
37
root 0.487743 17.2689 -16.8871 4.53838 -9.32209 -5.05107
lfemur -25.0619 14.7933 -9.40577
ltibia 111.289 0 0
lfoot 14.448 -4.36733 0
ltoes -8.78698 0 0
rfemur -16.4728 3.71362 31.9145
rtibia 43.7151 0 0
rfoot -15.9704 -6.30365 0
rtoes -9.03721 0 0
lowerback 18.5442 -0.823681 3.79712
upperback 2.18591 -0.169251 2.11036
thorax -8.02949 -0.168298 0.163152
lowerneck -1.14735 2.90036 0.889432
upperneck -16.796 3.41185 -3.80129
head -4.77675 1.82247 -1.43747
lclavicle -1.50621e-14 7.41645e-15 0
lhumerus -46.1738 -11.4941 95.909
lradius 104.6 0 0
lwrist 33.8158 0 0
lhand -39.5634 13.9448 0
lfingers 7.12502 0 0
lthumb -12.5469 43.5483 0
rclavicle -1.50621e-14 7.41645e-15 0
rhumerus -31.7054 12.7117 -88.3976
rradius 100.828 0 0
rwrist -2.85523 0 0
rhand -44.9595 38.28 0
rfingers 7.12502 0 0
rthumb -17.7443 9.0735 0
38
root 0.498742 17.2733 -16.3499 4.50117 -9.4456 -5.13077
lfemur -25.3496 14.9828 -9.17541
ltibia 112.148 0 0
lfoot 14.8821 -4.43831 0
ltoes -8.79499 0 0
rfemur -16.0439 3.74715 32.0928
rtibia 42.8977 0 0
rfoot -16.2418 -6.32673 0
rtoes -9.12114 0 0
lowerback 18.5251 -0.815377 3.90494
upperback 2.20236 -0.130529 2.15923
thorax -8.00315 -0.153317 0.144336
lowerneck -1.15301 2.93081 0.910575
upperneck -16.8129 3.44142 -3.89489
head -4.77439 1.8406 -1.47299
lclavicle -1.50262e-14 7.98645e-15 0
lhumerus -46.739 -11.3376 96.0922
lradius 104.43 0 0
lwrist 33.9087 0 0
lhand -39.5843 14.0076 0
lfingers 7.12502 0 0
lthumb -12.5671 43.6099 0
rclavicle -1.50262e-14 7.98645e-15 0
rhumerus -31.368 12.7483 -88.3734
rradius 101.06 0 0
rwrist -2.86534 0 0
rhand -44.8772 38.238 0
rfingers 7.12502 0 0
rthumb -17.6652 9.02347 0
39
root 0.509741 17.2777 -15.8126 4.46031 -9.53684 -5.19113
lfemur -25.5984 15.1283 -8.99192
ltibia 112.827 0 0
lfoot 15.2351 -4.49784 0
ltoes -8.81354 0 0
rfemur -15.6441 3.75387 32.2313
rtibia 42.2429 0 0
rfoot -16.4299 -6.34835 0
rtoes -9.14505 0 0
lowerback 18.5067 -0.807712 3.98991
upperback 2.21878 -0.098174 2.19668
thorax -7.97688 -0.140835 0.127783
lowerneck -1.16676 2.95271 0.925362
upperneck -16.8165 3.46178 -3.96782
head -4.7674 1.85367 -1.50059
lclavicle -1.49644e-14 8.56362e-15 0
lhumerus -47.2253 -11.1995 96.2445
lradius 104.277 0 0
lwrist 33.9871 0 0
lhand -39.5982 14.0555 0
lfingers 7.12502 0 0
lthumb -12.5805 43.657 0
rclavicle -1.49644e-14 8.56362e-15 0
rhumerus -31.0829 12.772 -88.346
rradius 101.24 0 0
rwrist -2.86844 0 0
rhand -44.801 38.1991 0
rfingers 7.12502 0 0
rthumb -17.5919 8.9772 0
40
root 0.52074 17.282 -15.2754 4.41567 -9.59414 -5.23114
lfemur -25.8063 15.2276 -8.85777
ltibia 113.317 0 0
lfoot 15.5029 -4.54529 0
ltoes -8.84315 0 0
rfemur -15.2754 3.73246 32.3279
rtibia 41.7592 0 0
rfoot -16.5304 -6.36842 0
rtoes -9.10591 0 0
lowerback 18.489 -0.800725 4.05082
upperback 2.23517 -0.0725325 2.22212
thorax -7.95073 -0.130986 0.113622
lowerneck -1.189 2.96563 0.933462
upperneck -16.806 3.47243 -4.01899
head -4.75556 1.86143 -1.51984
lclavicle -1.48754e-14 9.14783e-15 0
lhumerus -47.6284 -11.0808 96.3641
lradius 104.142 0 0
lwrist 34.0504 0 0
lhand -39.6047 14.0878 0
lfingers 7.12502 0 0
lthumb -12.5868 43.6889 0
rclavicle -1.48754e-14 9.14783e-15 0
rhumerus -30.8529 12.7821 -88.3154
rradius 101.366 0 0
rwrist -2.86415 0 0
rhand -44.7313 38.1636 0
rfingers 7.12502 0 0
rthumb -17.525 8.93491 0
41
root 0.531739 17.2864 -14.7381 4.3671 -9.61579 -5.24979
lfemur -25.9712 15.2783 -8.77548
ltibia 113.608 0 0
lfoot 15.681 -4.58005 0
ltoes -8.88432 0 0
rfemur -14.9396 3.68156 32.3804
rtibia 41.4554 0 0
rfoot -16.5388 -6.38685 0
rtoes -9.00073 0 0
lowerback 18.4721 -0.794453 4.08645
upperback 2.2515 -0.0539494 2.23493
thorax -7.92471 -0.123907 0.101979
lowerneck -1.22012 2.96912 0.934545
upperneck -16.7807 3.4729 -4.04731
head -4.73864 1.8636 -1.53034
lclavicle -1.47579e-14 9.73893e-15 0
lhumerus -47.944 -10.9825 96.4494
lradius 104.026 0 0
lwrist 34.0976 0 0
lhand -39.6035 14.1036 0
lfingers 7.12502 0 0
lthumb -12.5856 43.7046 0
rclavicle -1.47579e-14 9.73893e-15 0
rhumerus -30.6811 12.778 -88.2813
rradius 101.435 0 0
rwrist -2.85215 0 0
rhand -44.6685 38.1317 0
rfingers 7.12502 0 0
rthumb -17.4646 8.89682 0
